<svg
                  style="width: 32px; height: 32px; position: relative; margin: 8px 8px 8px 8px; top: 1px; left: 12px; float: left;"
                  version="1.1"
                  xmlns="http://www.w3.org/2000/svg"
                  xmlns:xlink="http://www.w3.org/1999/xlink"
                  x="0px"
                  y="0px"
                  viewBox="-20 -25 330 330"
                  enable-background="new 0 0 42 32"
                  xml:space="preserve"
                >
                  <g class="nav-icon-nintendo-3ds" fill="white">
                    <circle cx="22.4" cy="88.6" r="8.8" />
                    <circle cx="105.7" cy="81" r="3.8" />
                    <circle cx="98" cy="88.7" r="3.8" />
                    <circle cx="113.4" cy="88.6" r="3.9" />
                    <circle cx="105.7" cy="96.2" r="3.8" />
                    <path
                      d="M113.4,128H14.6c-8,0-14.5-6.5-14.6-14.6V14.6C0,6.5,6.5,0,14.6,0h98.9c8,0,14.5,6.5,14.6,14.6v98.9C128,121.5,121.5,128,113.4,128z M14.6,4.4C9,4.4,4.4,9,4.4,14.6v98.9c0,5.6,4.6,10.2,10.2,10.2h98.9c5.6,0,10.2-4.6,10.2-10.2V14.6c0-5.6-4.6-10.2-10.2-10.2H14.6z"
                    />
                    <path
                      d="M92.9,16.6h-58c-1.6,0-2.9,1.4-2.9,3c0,0,0,0,0,0v29.2c0,1.6,1.2,3,2.9,3c0,0,0,0,0,0h58c1.6,0,2.9-1.3,2.9-3c0,0,0,0,0,0V19.5C95.8,17.9,94.5,16.6,92.9,16.6C92.9,16.6,92.9,16.6,92.9,16.6z"
                    />
                    <path
                      d="M84.2,78.2H43.8c-1.6,0-2.8,1.2-2.9,2.8v27.5c0,1.6,1.3,2.8,2.9,2.8h40.4c1.6,0,2.8-1.2,2.9-2.8V80.9C87,79.4,85.7,78.1,84.2,78.2z"
                    />
                    <rect y="61.8" width="127.6" height="6.6" />
                  </g>
                </svg>