<svg
                  style="width: 8px; height: 8px; "
                  version="1.1"
                  xmlns="http://www.w3.org/2000/svg"
                  xmlns:xlink="http://www.w3.org/1999/xlink"
                  x="0px"
                  y="0px"
                  viewBox="0 0 48 48"
                  enable-background="new 0 0 48 48"
                  xml:space="preserve"
                >
                  <path
                    fill="#fff"
                    d="M47.973,24a3.927,3.927,0,0,1-1.113,2.753L26.846,46.862a3.825,3.825,0,0,1-5.427,0L20.062,45.5a3.87,3.87,0,0,1,0-5.454L35.98,24,20.062,7.947a3.87,3.87,0,0,1,0-5.454l1.357-1.364a3.824,3.824,0,0,1,5.427,0L46.86,21.242A4.175,4.175,0,0,1,47.973,24ZM29.035,24a3.926,3.926,0,0,1-1.113,2.753L7.908,46.862a3.825,3.825,0,0,1-5.428,0L1.124,45.5a3.87,3.87,0,0,1,0-5.454L17.042,24,1.124,7.947a3.87,3.87,0,0,1,0-5.454L2.481,1.129a3.825,3.825,0,0,1,5.428,0L27.922,21.242A4.174,4.174,0,0,1,29.035,24Z"
                  />
                </svg>