<svg
style="width: 39px; height: 35px;"
id="Layer_1"
data-name="Layer 1"
xmlns="http://www.w3.org/2000/svg"
viewBox="0 0 39.62 35.01"
>
<path
    fill="white"
    d="M15.77,28.73a.57.57,0,1,0,.57.57A.58.58,0,0,0,15.77,28.73Zm3,1.47a1.14,1.14,0,0,0-.88.39h0v-.28h-1v3.34h1V32c0-.65.35-.93.75-.93s.7.18.7.83v1.72h1V31.85A1.52,1.52,0,0,0,18.75,30.2ZM7.42,32.37,6.61,30.3H5.52L7,33.58a.69.69,0,0,1-.75.6H6.07V35h.19c.74,0,1.12-.13,1.35-.69l1.64-4H8.15Zm7.87,1.28h1V30.3h-1ZM4.49,28.91c-.25,0-.52.1-.74.6L2.58,32.16h0L1.39,29.51c-.22-.5-.51-.6-.74-.6s-.65.23-.65.76v4H1V31h0s.83,1.88,1,2.21.36.45.54.45.37-.07.54-.45,1-2.21,1-2.21h0v2.62h1v-4C5.14,29.14,4.86,28.91,4.49,28.91Zm9.07,2.94-2-2.59a.73.73,0,0,0-.55-.35.52.52,0,0,0-.57.55v4.18h1v-2.9l2,2.59a.76.76,0,0,0,.56.35.51.51,0,0,0,.56-.55V28.94h-1Zm8.51-2.46h-1v.92h-.65v.78h.65v2.56h1V31.09h.66v-.78h-.66ZM28.77,7A13.19,13.19,0,0,0,17,0C11.11,0,5,3.92,5,10.49a7.44,7.44,0,0,0,4.12,6.57,1.31,1.31,0,0,0,1.7-.57l2.26-4.21,1.63,3.2a1.33,1.33,0,0,0,1.17.72,1.3,1.3,0,0,0,1.17-.72l1.62-3.18,2.21,4.18a1.31,1.31,0,1,0,2.32-1.22L19.83,8.84a1.3,1.3,0,0,0-2.32,0L15.9,12,14.3,8.86a1.31,1.31,0,0,0-2.32,0L9.22,14a4.61,4.61,0,0,1-1.58-3.48c0-4.93,4.76-7.87,9.37-7.87A10.69,10.69,0,0,1,26.79,8.9a1.31,1.31,0,0,0,1.27.75h.3a5.71,5.71,0,0,1,5.53,5.58,5.64,5.64,0,0,1-5.71,5.7,5.57,5.57,0,0,1-3.12-1,1.31,1.31,0,0,0-1.61,0,14.49,14.49,0,0,1-8.82,3A14.57,14.57,0,0,1,4,18.25a1.31,1.31,0,1,0-2,1.69,17.11,17.11,0,0,0,12.63,5.6,16.94,16.94,0,0,0,9.68-3,8.51,8.51,0,0,0,3.87,1,8.23,8.23,0,0,0,8.33-8.32A8.32,8.32,0,0,0,28.77,7ZM24.55,30.2a1.78,1.78,0,0,0,0,3.55,1.77,1.77,0,0,0,1.58-.92l-.79-.28a1,1,0,0,1-.8.38.85.85,0,0,1-.83-.65h2c.42,0,.64-.08.64-.4A1.78,1.78,0,0,0,24.55,30.2Zm-.82,1.41a.86.86,0,0,1,.84-.59.87.87,0,0,1,.85.59ZM36.14,30.2A1.78,1.78,0,1,0,37.92,32,1.79,1.79,0,0,0,36.14,30.2Zm0,2.67A.9.9,0,1,1,37,32,.88.88,0,0,1,36.14,32.87ZM28.53,30.2a1.14,1.14,0,0,0-.89.39h0v-.28h-1v3.34h1V32c0-.65.35-.93.75-.93a.73.73,0,0,1,.71.83v1.72h1V31.85A1.52,1.52,0,0,0,28.53,30.2Zm4.53.35h0a1.26,1.26,0,0,0-.89-.35,1.78,1.78,0,0,0,0,3.55A1.26,1.26,0,0,0,33,33.4h0v.25h1V28.94h-1Zm-.88,2.33a.91.91,0,0,1,0-1.81.91.91,0,0,1,0,1.81Zm7.16,0-.14.51-.15-.51h-.27v.79H39v-.59l.17.59h.13l.18-.59v.59h.19v-.79ZM38.16,33h.16v.61h.2V33h.16v-.18h-.52Z"
/>
</svg>



